<?xml version="1.0" encoding="UTF-8"?>
<svg version="1.1" xmlns="http://www.w3.org/2000/svg" width="2000" height="2000">
<path d="M0 0 C660 0 1320 0 2000 0 C2000 660 2000 1320 2000 2000 C1340 2000 680 2000 0 2000 C0 1340 0 680 0 0 Z " fill="#FF3131" transform="translate(0,0)"/>
<path d="M0 0 C0.93008243 -0.00297112 1.86016487 -0.00594224 2.81843162 -0.0090034 C5.93143346 -0.01766633 9.04439673 -0.01919669 12.15740967 -0.02069092 C14.39194317 -0.02532127 16.62647589 -0.03034622 18.86100769 -0.03573608 C24.9345182 -0.04885237 31.00801765 -0.05530506 37.08154011 -0.05974674 C40.88592234 -0.06268235 44.69030159 -0.06678836 48.49468231 -0.07125092 C59.05826313 -0.08336456 69.62184133 -0.09374172 80.18542862 -0.09712601 C80.86119548 -0.09734557 81.53696233 -0.09756514 82.23320697 -0.09779136 C82.91048942 -0.09800964 83.58777186 -0.09822791 84.28557801 -0.09845281 C85.65773153 -0.09889625 87.02988505 -0.09934281 88.40203857 -0.09979248 C89.08265751 -0.10001391 89.76327644 -0.10023534 90.46452019 -0.10046348 C101.44293324 -0.10439427 112.42127921 -0.12179306 123.39966646 -0.145152 C134.71141109 -0.16902234 146.02311109 -0.18107865 157.33488536 -0.18249393 C163.66927249 -0.1835346 170.00356528 -0.18928171 176.33792877 -0.20731354 C182.3166698 -0.2239999 188.29524773 -0.22585186 194.27400398 -0.21717453 C196.4464951 -0.21641466 198.61899574 -0.22060447 200.79146385 -0.23063278 C222.2963113 -0.32392442 243.47454555 2.04994071 264.62127686 5.89044189 C265.32880096 6.01771667 266.03632507 6.14499146 266.76528931 6.27612305 C334.06947248 18.47423069 398.35990727 49.16010827 450.68377686 93.14044189 C451.82394424 94.08630629 452.96455535 95.03163611 454.10565186 95.97637939 C464.89801556 104.95562599 475.10890375 114.48895303 485.05877686 124.39044189 C485.71273437 125.03972656 486.36669189 125.68901123 487.04046631 126.35797119 C491.45686654 130.78899712 495.60557995 135.39829612 499.68377686 140.14044189 C500.64508994 141.2350063 501.60728076 142.32880066 502.57049561 143.42169189 C522.38444075 166.09267784 539.56395667 191.55762528 553.68377686 218.14044189 C554.23485107 219.17684814 554.78592529 220.21325439 555.35369873 221.28106689 C573.25058959 255.27917395 585.69293929 290.52433524 593.68377686 328.14044189 C593.90662354 329.1491333 594.12947021 330.15782471 594.35906982 331.19708252 C613.65588993 418.93310224 601.59285251 515.50227741 559.75115967 595.09112549 C558.5569364 597.3839686 557.39765279 599.69297841 556.23846436 602.00372314 C543.42105024 627.31989952 527.35348368 650.54470425 509.20526123 672.3147583 C507.77946815 674.02561849 506.36368886 675.7442889 504.94940186 677.46466064 C492.97542439 691.92705275 480.00833502 706.17060035 465.72283936 718.37872314 C463.45685456 720.33649928 461.26234192 722.36273137 459.05877686 724.39044189 C435.99204882 745.14699686 409.76104283 762.16021896 382.68377686 777.14044189 C381.50476807 777.79593018 381.50476807 777.79593018 380.30194092 778.46466064 C353.08808233 793.49994163 324.13831513 804.84042164 294.03192139 812.52911377 C291.98946855 813.06085653 289.95840345 813.63597057 287.92987061 814.21856689 C257.02976664 823.07729977 225.33113684 825.2766752 193.36932373 825.31744385 C191.17767738 825.32372508 188.98603205 825.33037328 186.79438782 825.33735657 C179.66377474 825.35818429 172.53316194 825.3687318 165.40252686 825.37872314 C162.93230682 825.38277726 160.46208689 825.38689436 157.99186707 825.39107323 C146.39106533 825.41007 134.79026977 825.42431813 123.18945551 825.4326852 C109.85225055 825.44246787 96.51524483 825.46883762 83.1780982 825.50918609 C72.82683094 825.53941606 62.475611 825.55416017 52.12430048 825.55746621 C45.95967874 825.55980664 39.79523494 825.56863747 33.63066101 825.59392738 C27.83233609 825.61733735 22.03430482 825.62138964 16.23594475 825.611166 C14.12093562 825.61067385 12.00591135 825.61689847 9.89094734 825.63072205 C-20.41616597 825.81757656 -45.14857695 816.62288112 -67.37872314 795.45294189 C-85.86067336 776.47852592 -95.68092487 750.86372006 -95.57349205 724.56006336 C-95.57699812 723.45386748 -95.5805042 722.34767159 -95.58411652 721.20795462 C-95.59338884 717.51700852 -95.58851793 713.82622165 -95.58364868 710.13526917 C-95.58738703 707.45590283 -95.59190993 704.7765481 -95.59737933 702.09718579 C-95.60765474 696.2796984 -95.61052741 690.46224426 -95.6084671 684.64474869 C-95.60541073 675.99352618 -95.61375513 667.34234034 -95.62421635 658.69112497 C-95.64353782 642.33898865 -95.64918387 625.9868649 -95.65033047 609.63471851 C-95.65125026 597.00499865 -95.6553706 584.37528369 -95.66173172 571.74556541 C-95.66352686 568.10749521 -95.66530649 564.46942501 -95.66708148 560.8313548 C-95.66752357 559.92686988 -95.66796567 559.02238497 -95.66842116 558.09049142 C-95.68072602 532.65607603 -95.68862264 507.22166234 -95.6877346 481.78724384 C-95.68770345 480.82870558 -95.68767229 479.87016732 -95.68764019 478.88258244 C-95.68747398 474.02453069 -95.6872759 469.16647894 -95.68707077 464.30842719 C-95.68703088 463.34363484 -95.68699099 462.37884249 -95.68694989 461.38481401 C-95.68686902 459.43376972 -95.68678542 457.48272543 -95.68669911 455.53168113 C-95.6854737 425.17899955 -95.70048645 394.82636265 -95.72784424 364.47369385 C-95.75858223 330.35689873 -95.77577572 296.24013298 -95.77391779 262.12332314 C-95.77376854 258.48368116 -95.77367112 254.84403918 -95.77360916 251.2043972 C-95.77358585 250.30825358 -95.77356254 249.41210997 -95.77353853 248.48881048 C-95.77347705 234.08411638 -95.78623426 219.67946116 -95.80347369 205.27477861 C-95.82044822 190.7916492 -95.82238974 176.30857652 -95.80925505 161.82544265 C-95.80187821 153.2283625 -95.80548589 144.631455 -95.82513973 136.03439323 C-95.83717477 130.2825471 -95.83450971 124.53082547 -95.82019873 118.77898496 C-95.81246527 115.50783607 -95.8130379 112.2370841 -95.82711343 108.96594683 C-95.94991074 78.39342975 -88.69317479 52.17442868 -66.99591064 29.82012939 C-49.0922399 11.91645865 -25.64792278 -0.02573362 0 0 Z " fill="#FFFEFE" transform="translate(746.3162231445313,535.8595581054688)"/>
<path d="M0 0 C11.84322203 10.0988715 19.8865623 21.5654683 21.36328125 37.4609375 C21.73929864 53.44985097 17.47346638 66.76874539 6.390625 78.3984375 C-4.62275356 89.15821853 -17.0813219 94.03087172 -32.47314453 94.10375977 C-46.63455388 93.80866394 -58.16885109 87.38216486 -68.296875 77.78125 C-74.32128822 71.46533291 -77.55188357 65.03483008 -79.984375 56.71875 C-80.37625 55.64625 -80.768125 54.57375 -81.171875 53.46875 C-84.11744631 39.87380549 -81.56401753 25.31098163 -74.125 13.60546875 C-65.30481294 1.71109241 -54.96422124 -5.94571996 -40.359375 -8.8046875 C-26.2992873 -10.79002396 -11.64620127 -8.71242538 0 0 Z " fill="#FF3232" transform="translate(978.984375,897.28125)"/>
<path d="M0 0 C12.69104539 -0.53134812 25.71145489 3.56949566 35.47265625 11.6953125 C45.81587872 21.29418217 52.51518212 32.73645472 53.8359375 46.953125 C54.2133399 63.00093138 49.91169931 76.29538412 38.79296875 87.9609375 C27.97705445 98.52020298 14.83175627 103.48359058 -0.20922852 103.5300293 C-13.83441846 103.29066577 -25.39991269 96.81005345 -35.1484375 87.66796875 C-41.30992735 81.26205617 -45.2157787 74.76412261 -47.51171875 66.2109375 C-47.90359375 65.1384375 -48.29546875 64.0659375 -48.69921875 62.9609375 C-51.64296241 49.37442828 -49.10448782 34.78038281 -41.640625 23.09375 C-33.06173086 11.47682546 -22.64693231 3.4695109 -8.26171875 0.7734375 C-5.50936639 0.44620935 -2.76138293 0.23190463 0 0 Z " fill="#FF3232" transform="translate(946.51171875,697.7890625)"/>
<path d="M0 0 C10.50263179 8.19754836 18.25984604 18.72220215 20.9375 32.0546875 C22.72172627 47.72242444 19.65210907 61.56569515 10.1875 74.25 C9.424375 75.3225 8.66125 76.395 7.875 77.5 C-2.55492732 88.17248377 -15.40922759 93.1287775 -30.125 93.4375 C-43.0897064 93.26030584 -56.50187889 89.33577993 -66.1640625 80.1640625 C-78.10179352 66.30271606 -83.12052658 52.65320729 -81.8125 34.25 C-78.80561455 19.39533218 -71.13989574 6.86745886 -58.4375 -1.625 C-56.58163357 -2.70038562 -54.70692241 -3.74408838 -52.8125 -4.75 C-51.65621094 -5.40162109 -51.65621094 -5.40162109 -50.4765625 -6.06640625 C-34.33665011 -13.56180246 -14.09512334 -9.58851928 0 0 Z " fill="#FF3131" transform="translate(978.8125,1087.75)"/>
</svg>
